<svg width="100%" viewBox="0 0 610 180" className="mt-5 -mb-5" fill="none" xmlns="http://www.w3.org/2000/svg">
    <rect y="0.438599" width="191.162" height="44.4947" rx="5" fill="#1B1D31" fill-opacity="0.65"/>
    <rect y="61.4128" width="191.162" height="44.4947" rx="5" fill="#1B1D31" fill-opacity="0.65"/>
    <rect y="120.739" width="191.162" height="46.1427" rx="5" fill="#1B1D31" fill-opacity="0.65"/>
    <rect x="206" width="404" height="180" rx="5" fill="#1B1D31" fill-opacity="0.65"/>
    <path d="M236.953 37.8619L238.345 26.6619H240.137L238.761 37.8619H236.953ZM231.033 35.3019V33.5579H241.369V35.3019H231.033ZM232.809 37.8619L234.201 26.6619H235.993L234.601 37.8619H232.809ZM231.577 30.9659V29.2219H241.897L241.913 30.9659H231.577ZM246.616 37.8619L251.608 26.6619H254.168L259.176 37.8619H256.456L252.36 27.9739H253.384L249.272 37.8619H246.616ZM249.112 35.4619L249.8 33.4939H255.56L256.264 35.4619H249.112ZM260.338 37.8619V26.6619H265.186C266.189 26.6619 267.053 26.8273 267.778 27.1579C268.504 27.4779 269.064 27.9419 269.458 28.5499C269.853 29.1579 270.05 29.8833 270.05 30.7259C270.05 31.5579 269.853 32.2779 269.458 32.8859C269.064 33.4939 268.504 33.9633 267.778 34.2939C267.053 34.6139 266.189 34.7739 265.186 34.7739H261.778L262.93 33.6059V37.8619H260.338ZM262.93 33.8939L261.778 32.6619H265.042C265.842 32.6619 266.44 32.4913 266.834 32.1499C267.229 31.8086 267.426 31.3339 267.426 30.7259C267.426 30.1073 267.229 29.6273 266.834 29.2859C266.44 28.9446 265.842 28.7739 265.042 28.7739H261.778L262.93 27.5419V33.8939ZM271.901 37.8619V26.6619H274.493V37.8619H271.901ZM281.682 37.8619V26.6619H286.77C287.986 26.6619 289.058 26.8966 289.986 27.3659C290.914 27.8246 291.639 28.4699 292.162 29.3019C292.685 30.1339 292.946 31.1206 292.946 32.2619C292.946 33.3926 292.685 34.3793 292.162 35.2219C291.639 36.0539 290.914 36.7046 289.986 37.1739C289.058 37.6326 287.986 37.8619 286.77 37.8619H281.682ZM284.274 35.7339H286.642C287.389 35.7339 288.034 35.5953 288.578 35.3179C289.133 35.0299 289.559 34.6246 289.858 34.1019C290.167 33.5793 290.322 32.9659 290.322 32.2619C290.322 31.5473 290.167 30.9339 289.858 30.4219C289.559 29.8993 289.133 29.4993 288.578 29.2219C288.034 28.9339 287.389 28.7899 286.642 28.7899H284.274V35.7339ZM298.821 37.9899C297.903 37.9899 297.087 37.7979 296.373 37.4139C295.669 37.0299 295.109 36.5073 294.693 35.8459C294.287 35.1739 294.085 34.4113 294.085 33.5579C294.085 32.6939 294.287 31.9313 294.693 31.2699C295.109 30.5979 295.669 30.0753 296.373 29.7019C297.087 29.3179 297.903 29.1259 298.821 29.1259C299.727 29.1259 300.538 29.3179 301.253 29.7019C301.967 30.0753 302.527 30.5926 302.933 31.2539C303.338 31.9153 303.541 32.6833 303.541 33.5579C303.541 34.4113 303.338 35.1739 302.933 35.8459C302.527 36.5073 301.967 37.0299 301.253 37.4139C300.538 37.7979 299.727 37.9899 298.821 37.9899ZM298.821 35.9419C299.237 35.9419 299.61 35.8459 299.941 35.6539C300.271 35.4619 300.533 35.1899 300.725 34.8379C300.917 34.4753 301.013 34.0486 301.013 33.5579C301.013 33.0566 300.917 32.6299 300.725 32.2779C300.533 31.9259 300.271 31.6539 299.941 31.4619C299.61 31.2699 299.237 31.1739 298.821 31.1739C298.405 31.1739 298.031 31.2699 297.701 31.4619C297.37 31.6539 297.103 31.9259 296.901 32.2779C296.709 32.6299 296.613 33.0566 296.613 33.5579C296.613 34.0486 296.709 34.4753 296.901 34.8379C297.103 35.1899 297.37 35.4619 297.701 35.6539C298.031 35.8459 298.405 35.9419 298.821 35.9419ZM309.369 37.9899C308.441 37.9899 307.614 37.8033 306.889 37.4299C306.164 37.0459 305.593 36.5179 305.177 35.8459C304.772 35.1739 304.569 34.4113 304.569 33.5579C304.569 32.6939 304.772 31.9313 305.177 31.2699C305.593 30.5979 306.164 30.0753 306.889 29.7019C307.614 29.3179 308.441 29.1259 309.369 29.1259C310.276 29.1259 311.065 29.3179 311.737 29.7019C312.409 30.0753 312.905 30.6139 313.225 31.3179L311.289 32.3579C311.065 31.9526 310.782 31.6539 310.441 31.4619C310.11 31.2699 309.748 31.1739 309.353 31.1739C308.926 31.1739 308.542 31.2699 308.201 31.4619C307.86 31.6539 307.588 31.9259 307.385 32.2779C307.193 32.6299 307.097 33.0566 307.097 33.5579C307.097 34.0593 307.193 34.4859 307.385 34.8379C307.588 35.1899 307.86 35.4619 308.201 35.6539C308.542 35.8459 308.926 35.9419 309.353 35.9419C309.748 35.9419 310.11 35.8513 310.441 35.6699C310.782 35.4779 311.065 35.1739 311.289 34.7579L313.225 35.8139C312.905 36.5073 312.409 37.0459 311.737 37.4299C311.065 37.8033 310.276 37.9899 309.369 37.9899ZM317.558 37.9899C316.822 37.9899 316.113 37.9046 315.43 37.7339C314.758 37.5526 314.225 37.3286 313.83 37.0619L314.662 35.2699C315.057 35.5153 315.521 35.7179 316.054 35.8779C316.598 36.0273 317.132 36.1019 317.654 36.1019C318.23 36.1019 318.636 36.0326 318.87 35.8939C319.116 35.7553 319.238 35.5633 319.238 35.3179C319.238 35.1153 319.142 34.9659 318.95 34.8699C318.769 34.7633 318.524 34.6833 318.214 34.6299C317.905 34.5766 317.564 34.5233 317.19 34.4699C316.828 34.4166 316.46 34.3473 316.086 34.2619C315.713 34.1659 315.372 34.0273 315.062 33.8459C314.753 33.6646 314.502 33.4193 314.31 33.1099C314.129 32.8006 314.038 32.4006 314.038 31.9099C314.038 31.3659 314.193 30.8859 314.502 30.4699C314.822 30.0539 315.281 29.7286 315.878 29.4939C316.476 29.2486 317.19 29.1259 318.022 29.1259C318.609 29.1259 319.206 29.1899 319.814 29.3179C320.422 29.4459 320.929 29.6326 321.334 29.8779L320.502 31.6539C320.086 31.4086 319.665 31.2433 319.238 31.1579C318.822 31.0619 318.417 31.0139 318.022 31.0139C317.468 31.0139 317.062 31.0886 316.806 31.2379C316.55 31.3873 316.422 31.5793 316.422 31.8139C316.422 32.0273 316.513 32.1873 316.694 32.2939C316.886 32.4006 317.137 32.4859 317.446 32.5499C317.756 32.6139 318.092 32.6726 318.454 32.7259C318.828 32.7686 319.201 32.8379 319.574 32.9339C319.948 33.0299 320.284 33.1686 320.582 33.3499C320.892 33.5206 321.142 33.7606 321.334 34.0699C321.526 34.3686 321.622 34.7633 321.622 35.2539C321.622 35.7873 321.462 36.2619 321.142 36.6779C320.822 37.0833 320.358 37.4033 319.75 37.6379C319.153 37.8726 318.422 37.9899 317.558 37.9899Z" fill="white" fill-opacity="0.7"/>
    <rect x="231" y="53" width="311.672" height="15.1507" rx="5" fill="#D9D9D9" fill-opacity="0.04"/>
    <rect x="231" y="76.8083" width="203.452" height="15.1507" rx="5" fill="#D9D9D9" fill-opacity="0.04"/>
    <rect x="231" y="100.617" width="246.74" height="15.1507" rx="5" fill="#D9D9D9" fill-opacity="0.04"/>
    <rect x="231" y="124" width="123" height="15" rx="5" fill="#D9D9D9" fill-opacity="0.04"/>
</svg>